<?xml version="1.0" standalone="no"?><!DOCTYPE svg PUBLIC "-//W3C//DTD SVG 1.1//EN" "http://www.w3.org/Graphics/SVG/1.1/DTD/svg11.dtd"><svg t="1770909755842" class="icon" viewBox="0 0 1024 1024" version="1.1" xmlns="http://www.w3.org/2000/svg" p-id="5043" xmlns:xlink="http://www.w3.org/1999/xlink" width="200" height="200"><path d="M624.138336 317.683679l-90.352941 90.049027c15.715936 25.947722 46.10738 84.778439 32.855615 151.957219-5.16107 26.155807-17.429904 56.073583-84.877006 129.442909a1357.328428 1357.328428 0 0 1-161.540107 149.142588c-31.015701-47.509219-89.178353-150.867508-96.825497-291.944042 0 0-6.872299-128.596877 36.894118-237.940364a508.112086 508.112086 0 0 1 59.994353-109.091594l58.272171 63.290867 97.833069-106.260535L332.462614 0l-0.501048 0.544856-0.183444-0.219038a459.332449 459.332449 0 0 0-149.887316 127.734417C135.958657 188.810267 56.300218 373.20693 87.346036 593.917262 120.168796 827.25784 258.452603 974.694674 309.269288 1024c142.004706-74.409754 225.411422-168.352171 268.320855-225.121198 49.792684-65.875508 99.204791-131.249968 109.518717-230.747722 12.493348-120.525348-40.302888-214.692278-62.973262-250.447401z" fill="#333333" p-id="5044"></path><path d="M399.844004 706.316321l90.352941-90.049027c-14.237433-24.77861-42.244107-81.867979-32.855615-151.957219 8.810781-65.812535 45.888342-107.925219 87.395936-155.070289a542.960941 542.960941 0 0 1 159.021177-123.515208c31.012963 47.509219 89.175615 150.867508 96.822759 291.944042 0 0 6.872299 128.596877-36.896855 237.940364a508.114824 508.114824 0 0 1-59.994353 109.091594l-58.269434-63.290867-97.835807 106.260535L691.51425 1024l0.501048-0.544856 0.183444 0.219038a459.335187 459.335187 0 0 0 149.887316-127.734417c45.93215-60.750032 125.590588-245.146695 94.54477-465.857027C903.808068 196.74216 765.526999 49.305326 714.710314 0c-142.001968 74.409754-225.411422 168.352171-268.320855 225.121198-49.792684 65.875508-99.204791 131.249968-109.518717 230.747722-12.493348 120.525348 40.305626 214.692278 62.973262 250.447401z" fill="#333333" p-id="5045"></path></svg>