<?xml version="1.0" standalone="no"?><!DOCTYPE svg PUBLIC "-//W3C//DTD SVG 1.1//EN" "http://www.w3.org/Graphics/SVG/1.1/DTD/svg11.dtd"><svg t="1770909804212" class="icon" viewBox="0 0 1024 1024" version="1.1" xmlns="http://www.w3.org/2000/svg" p-id="7119" xmlns:xlink="http://www.w3.org/1999/xlink" width="200" height="200"><path d="M640 330.666667a42.666667 42.666667 0 0 1 42.56 39.466666l0.106667 3.2V448h15.701333c51.84 0 89.898667 7.594667 124.373333 24.725333l6.08 3.114667a197.738667 197.738667 0 0 1 82.005334 82.005333C930.133333 593.962667 938.666667 633.408 938.666667 688.298667v31.402666c0 54.890667-8.533333 94.336-27.84 130.453334a197.738667 197.738667 0 0 1-82.005334 82.005333C792.704 951.466667 753.258667 960 698.368 960H325.632c-54.890667 0-94.336-8.533333-130.453333-27.84a197.738667 197.738667 0 0 1-82.005334-82.005333C93.866667 814.037333 85.333333 774.592 85.333333 719.701333v-31.402666c0-54.890667 8.533333-94.336 27.84-130.453334a197.738667 197.738667 0 0 1 82.005334-82.005333C231.296 456.533333 270.741333 448 325.632 448H597.333333v-74.666667a42.666667 42.666667 0 0 1 42.666667-42.666666z m58.368 202.666666H325.632c-41.664 0-67.413333 5.546667-90.197333 17.749334a112.426667 112.426667 0 0 0-47.018667 47.018666C176.234667 620.885333 170.666667 646.613333 170.666667 688.298667v31.402666c0 41.664 5.546667 67.413333 17.749333 90.197334a112.426667 112.426667 0 0 0 47.018667 47.018666c22.784 12.181333 48.533333 17.749333 90.197333 17.749334h372.736c41.664 0 67.413333-5.546667 90.197333-17.749334a112.426667 112.426667 0 0 0 47.018667-47.018666c12.181333-22.784 17.749333-48.533333 17.749333-90.197334v-31.402666c0-41.664-5.546667-67.413333-17.749333-90.197334a112.426667 112.426667 0 0 0-47.018667-47.018666C765.781333 538.901333 740.053333 533.333333 698.368 533.333333z m-353.109333 117.333334c12.672 0 20.629333 1.984 27.584 5.696 6.954667 3.712 12.416 9.173333 16.128 16.128 3.712 6.954667 5.696 14.912 5.696 27.584v7.850666c0 12.672-1.984 20.629333-5.696 27.584-3.712 6.954667-9.173333 12.416-16.128 16.128-6.954667 3.712-14.912 5.696-27.584 5.696h-7.850667c-12.672 0-20.629333-1.984-27.584-5.696a38.762667 38.762667 0 0 1-16.128-16.128c-3.712-6.954667-5.696-14.912-5.696-27.584v-7.850666c0-12.672 1.984-20.629333 5.696-27.584 3.712-6.954667 9.173333-12.416 16.128-16.128 6.954667-3.712 14.912-5.696 27.584-5.696h7.850667zM640 202.666667a191.296 191.296 0 0 1 111.936 35.989333l7.274667 5.504 0.938666 0.746667a42.666667 42.666667 0 0 1-50.624 68.608l-4.202666-3.2A105.984 105.984 0 0 0 640 288a105.984 105.984 0 0 0-61.077333 19.221333l-5.632 4.224a42.666667 42.666667 0 0 1-56.085334-64.213333l3.584-3.050667 1.578667-1.258666A191.296 191.296 0 0 1 640 202.666667zM640 64a339.946667 339.946667 0 0 1 201.024 65.450667l8.064 6.08 4.48 3.541333a42.666667 42.666667 0 1 1-53.418667 66.517333l-3.370666-2.645333A254.613333 254.613333 0 0 0 640 149.333333a254.613333 254.613333 0 0 0-156.757333 53.610667l-3.370667 2.645333a42.666667 42.666667 0 0 1-56.064-64.213333l2.645333-2.304 4.48-3.541333A339.946667 339.946667 0 0 1 640 64z" fill="#3FB950" p-id="7120"></path></svg>